<svg xmlns="http://www.w3.org/2000/svg" width="900" height="463" viewBox="0 0 900 463" role="img" aria-labelledby="title desc">
<title id="title">Variação em 7 dias: Investimentos EA FC: Liga F em 20/07 — Console (PS)</title>
<desc id="desc">Gráfico gerado a partir da tabela publicada neste artigo.</desc>
<rect width="100%" height="100%" rx="20" fill="#0f172a"/>
<text x="28" y="42" fill="#f8fafc" font-family="system-ui,sans-serif" font-size="23" font-weight="700">Variação em 7 dias</text>
<text x="28" y="70" fill="#94a3b8" font-family="system-ui,sans-serif" font-size="15">Dados do recorte publicado no artigo</text>
<text x="28" y="117" fill="#e2e8f0" font-family="system-ui,sans-serif" font-size="16">Luany</text>
<rect x="285" y="95" width="480" height="28" rx="7" fill="#22c55e"/>
<text x="775" y="116" fill="#f8fafc" font-family="system-ui,sans-serif" font-size="15" font-weight="700">+79.1%</text>
<text x="28" y="175" fill="#e2e8f0" font-family="system-ui,sans-serif" font-size="16">Nerea Nevado</text>
<rect x="285" y="153" width="448" height="28" rx="7" fill="#22c55e"/>
<text x="743" y="174" fill="#f8fafc" font-family="system-ui,sans-serif" font-size="15" font-weight="700">+73.9%</text>
<text x="28" y="233" fill="#e2e8f0" font-family="system-ui,sans-serif" font-size="16">Ewa Pajor</text>
<rect x="285" y="211" width="414" height="28" rx="7" fill="#22c55e"/>
<text x="709" y="232" fill="#f8fafc" font-family="system-ui,sans-serif" font-size="15" font-weight="700">+68.3%</text>
<text x="28" y="291" fill="#e2e8f0" font-family="system-ui,sans-serif" font-size="16">Linda Caicedo</text>
<rect x="285" y="269" width="338" height="28" rx="7" fill="#22c55e"/>
<text x="633" y="290" fill="#f8fafc" font-family="system-ui,sans-serif" font-size="15" font-weight="700">+55.7%</text>
<text x="28" y="349" fill="#e2e8f0" font-family="system-ui,sans-serif" font-size="16">Sydney Schertenleib</text>
<rect x="285" y="327" width="276" height="28" rx="7" fill="#22c55e"/>
<text x="571" y="348" fill="#f8fafc" font-family="system-ui,sans-serif" font-size="15" font-weight="700">+45.5%</text>
<text x="28" y="407" fill="#e2e8f0" font-family="system-ui,sans-serif" font-size="16">Allegra Poljak</text>
<rect x="285" y="385" width="119" height="28" rx="7" fill="#22c55e"/>
<text x="414" y="406" fill="#f8fafc" font-family="system-ui,sans-serif" font-size="15" font-weight="700">+19.6%</text>
</svg>
