<svg xmlns="http://www.w3.org/2000/svg" width="900" height="463" viewBox="0 0 900 463" role="img" aria-labelledby="title desc">
<title id="title">Variação em 24h: Liga F no EA FC em 18/06: altas e baixas — PS</title>
<desc id="desc">Gráfico gerado a partir da tabela publicada neste artigo.</desc>
<rect width="100%" height="100%" rx="20" fill="#0f172a"/>
<text x="28" y="42" fill="#f8fafc" font-family="system-ui,sans-serif" font-size="23" font-weight="700">Variação em 24h</text>
<text x="28" y="70" fill="#94a3b8" font-family="system-ui,sans-serif" font-size="15">Dados do recorte publicado no artigo</text>
<text x="28" y="117" fill="#e2e8f0" font-family="system-ui,sans-serif" font-size="16">Edna Imade</text>
<rect x="285" y="95" width="480" height="28" rx="7" fill="#22c55e"/>
<text x="775" y="116" fill="#f8fafc" font-family="system-ui,sans-serif" font-size="15" font-weight="700">+41.4%</text>
<text x="28" y="175" fill="#e2e8f0" font-family="system-ui,sans-serif" font-size="16">Estefanía Banini</text>
<rect x="285" y="153" width="311" height="28" rx="7" fill="#22c55e"/>
<text x="606" y="174" fill="#f8fafc" font-family="system-ui,sans-serif" font-size="15" font-weight="700">+26.8%</text>
<text x="28" y="233" fill="#e2e8f0" font-family="system-ui,sans-serif" font-size="16">Linda Caicedo</text>
<rect x="285" y="211" width="283" height="28" rx="7" fill="#22c55e"/>
<text x="578" y="232" fill="#f8fafc" font-family="system-ui,sans-serif" font-size="15" font-weight="700">+24.4%</text>
<text x="28" y="291" fill="#e2e8f0" font-family="system-ui,sans-serif" font-size="16">Rocío Gálvez</text>
<rect x="285" y="269" width="272" height="28" rx="7" fill="#22c55e"/>
<text x="567" y="290" fill="#f8fafc" font-family="system-ui,sans-serif" font-size="15" font-weight="700">+23.5%</text>
<text x="28" y="349" fill="#e2e8f0" font-family="system-ui,sans-serif" font-size="16">Alexia Putellas</text>
<rect x="285" y="327" width="220" height="28" rx="7" fill="#22c55e"/>
<text x="515" y="348" fill="#f8fafc" font-family="system-ui,sans-serif" font-size="15" font-weight="700">+19.0%</text>
<text x="28" y="407" fill="#e2e8f0" font-family="system-ui,sans-serif" font-size="16">Caroline Graham Hansen</text>
<rect x="285" y="385" width="170" height="28" rx="7" fill="#22c55e"/>
<text x="465" y="406" fill="#f8fafc" font-family="system-ui,sans-serif" font-size="15" font-weight="700">+14.7%</text>
</svg>
